<?xml version="1.0" encoding="UTF-8"?>
<!DOCTYPE svg PUBLIC "-//W3C//DTD SVG 1.1//EN" "http://www.w3.org/Graphics/SVG/1.1/DTD/svg11.dtd">
<!-- Creator: CorelDRAW X7 -->
<svg xmlns="http://www.w3.org/2000/svg" xml:space="preserve" width="207.433mm" height="83.6083mm" version="1.1" style="shape-rendering:geometricPrecision; text-rendering:geometricPrecision; image-rendering:optimizeQuality; fill-rule:evenodd; clip-rule:evenodd"
viewBox="0 0 13477 5432"
 xmlns:xlink="http://www.w3.org/1999/xlink">
 <defs>
  <style type="text/css">
   <![CDATA[
    .str0 {stroke:#FEFEFE;stroke-width:16.2429;stroke-linecap:round;stroke-linejoin:round}
    .fil9 {fill:none}
    .fil0 {fill:#FEFEFE}
    .fil4 {fill:#FFED00}
    .fil5 {fill:#F08219}
    .fil7 {fill:#E31E24}
    .fil2 {fill:#48C0EA}
    .fil6 {fill:#5D3085}
    .fil8 {fill:#4556A0}
    .fil3 {fill:#009846}
    .fil1 {fill:#393185;fill-rule:nonzero}
   ]]>
  </style>
 </defs>
 <g id="Слой_x0020_1">
  <metadata id="CorelCorpID_0Corel-Layer"/>
  <g id="_314344360">
   <ellipse class="fil0" cx="10379" cy="2043" rx="2709" ry="1300"/>
   <path class="fil1" d="M4434 3583l-1341 0 172 -128 0 -594c-107,0 -192,26 -258,79 33,-115 119,-173 258,-173l0 -488 -172 -129 1288 0c-96,105 -170,219 -222,341 -38,-102 -93,-171 -164,-206 -57,-29 -145,-43 -265,-43 -60,0 -132,3 -216,8l0 517 318 0 157 -174 0 439 -157 -171 -318 0 0 622c76,6 130,9 163,9 152,0 257,-15 312,-43 62,-32 130,-109 207,-233 21,84 50,153 85,206 29,44 80,97 153,161zm1225 0c-58,0 -126,11 -204,33 -82,22 -144,48 -188,80 0,-146 -23,-275 -69,-386 -23,-57 -86,-172 -188,-343l-196 182 0 330 141 104 -472 0 137 -104 0 -927 -137 -102 472 0 -141 102 0 478 382 -349c45,-41 67,-80 67,-116 0,-48 -42,-85 -126,-111l0 -4 508 0 0 4c-87,32 -213,123 -377,274l-154 141c121,214 198,344 231,392 92,132 197,239 314,322zm995 -200c-73,81 -142,139 -209,174 -75,38 -162,57 -263,57 -193,0 -339,-54 -438,-163 -99,-109 -148,-261 -148,-456 0,-174 49,-313 146,-418 97,-105 232,-157 403,-157 52,0 115,13 188,38 74,26 123,39 149,39 48,0 94,-15 139,-47 -67,116 -111,231 -133,345 -45,-198 -164,-298 -357,-298 -215,0 -323,166 -323,498 0,150 25,272 76,366 64,118 165,178 302,178 106,0 182,-31 227,-92 35,-49 56,-130 63,-243 27,34 54,67 82,100 34,41 66,67 96,79zm1119 200l-1060 0 137 -102 0 -469c-84,0 -153,21 -204,63 26,-91 94,-137 204,-137l0 -386 -137 -102 1019 0c-78,87 -136,177 -176,270 -31,-82 -74,-136 -130,-164 -44,-21 -113,-32 -209,-32 -65,0 -122,2 -171,6l0 408 251 0 125 -137 0 348 -125 -137 -251 0 0 492c45,4 88,6 129,6 84,0 145,-4 181,-12 64,-14 115,-45 151,-92 21,-26 47,-63 78,-112 16,65 39,119 67,163 25,37 65,79 121,126zm1080 0l-472 0 139 -104 0 -937c-60,-11 -108,-16 -145,-16 -83,0 -149,9 -198,26l0 766c0,90 -9,155 -26,194 -28,59 -80,88 -158,88 -137,0 -216,-62 -236,-186 51,-15 109,-43 173,-84 -14,37 -20,65 -20,84 0,80 28,120 83,120 71,0 107,-76 107,-228l0 -733 -174 -123 927 0 -139 102 0 927 139 104zm1172 0l-1060 0 137 -102 0 -469c-84,0 -152,21 -204,63 26,-91 94,-137 204,-137l0 -386 -137 -102 1019 0c-77,87 -136,177 -175,270 -32,-82 -75,-136 -131,-164 -44,-21 -113,-32 -208,-32 -66,0 -123,2 -172,6l0 408 251 0 125 -137 0 348 -125 -137 -251 0 0 492c45,4 88,6 129,6 84,0 145,-4 181,-12 64,-14 115,-45 152,-92 20,-26 46,-63 77,-112 16,65 39,119 67,163 25,37 65,79 121,126zm1149 0l-471 0 139 -104 0 -441c-72,17 -135,25 -188,25 -89,0 -170,-11 -245,-33l0 449 137 104 -472 0 139 -104 0 -455c-76,0 -137,25 -182,76 11,-43 33,-80 67,-113 37,-38 75,-57 115,-57l0 -378 -139 -102 472 0 -137 102 0 390c110,33 200,49 269,49 40,0 94,-8 164,-24l0 -415 -139 -102 471 0 -138 102 0 927 138 104zm1174 -200c-72,81 -141,139 -208,174 -75,38 -163,57 -263,57 -194,0 -340,-54 -438,-163 -99,-109 -148,-261 -148,-456 0,-174 48,-313 146,-418 97,-105 231,-157 403,-157 52,0 114,13 188,38 73,26 123,39 149,39 47,0 94,-15 139,-47 -67,116 -111,231 -133,345 -45,-198 -164,-298 -358,-298 -215,0 -322,166 -322,498 0,150 25,272 75,366 64,118 165,178 303,178 106,0 181,-31 226,-92 36,-49 57,-130 64,-243 27,34 54,67 81,100 34,41 66,67 96,79z"/>
   <polygon class="fil2 str0" points="1174,2960 1481,2256 2081,2685 "/>
   <polygon class="fil3 str0" points="2081,2685 1485,2255 2344,1995 "/>
   <polygon class="fil4 str0" points="2986,2411 2339,1995 2081,2685 "/>
   <polygon class="fil5 str0" points="2673,2993 2986,2411 2081,2685 "/>
   <polygon class="fil6 str0" points="2356,3593 1733,3257 2081,2685 "/>
   <polygon class="fil7 str0" points="2680,2979 2356,3593 2081,2685 "/>
   <polygon class="fil8 str0" points="1737,3259 1174,2960 2081,2685 "/>
   <polygon class="fil0 str0" points="1199,2974 1175,2960 1184,2936 2963,2396 2986,2411 2972,2436 "/>
   <polygon class="fil0 str0" points="1473,2275 1481,2256 1509,2248 2071,2653 2090,2717 "/>
   <polygon class="fil0 str0" points="2986,2411 2973,2428 2946,2437 2343,2042 2345,1994 "/>
   <polygon class="fil0 str0" points="2359,3545 2348,3563 2335,3582 1199,2974 1198,2926 "/>
   <polygon class="fil0 str0" points="2318,3571 2337,3579 2359,3588 2978,2426 2940,2410 "/>
   <polygon class="fil0 str0" points="1174,2959 1194,2966 1222,2959 1505,2297 1481,2256 "/>
   <polygon class="fil0 str0" points="2369,3569 2356,3593 2331,3580 2063,2697 2102,2686 "/>
   <polygon class="fil0 str0" points="2358,2008 2342,1995 2313,2004 2071,2653 2090,2717 "/>
   <polygon class="fil0 str0" points="1719,3249 1755,3268 2089,2711 2073,2659 "/>
   <polygon class="fil0 str0" points="2690,2960 2671,2996 2089,2711 2072,2657 "/>
   <polygon class="fil0 str0" points="1492,2295 1481,2256 2345,1994 2359,2011 2356,2033 "/>
   <path class="fil1" d="M4620 2059l0 -389 146 0c30,0 54,4 72,11 18,8 32,20 42,37 10,16 15,33 15,51 0,17 -4,32 -13,47 -9,15 -23,27 -41,36 23,7 42,18 54,35 13,17 19,36 19,59 0,18 -4,35 -11,51 -8,16 -18,28 -29,36 -11,9 -25,15 -43,19 -17,5 -38,7 -62,7l-149 0zm52 -226l84 0c23,0 39,-1 49,-4 13,-4 23,-11 30,-20 6,-9 10,-20 10,-34 0,-13 -3,-24 -10,-34 -6,-10 -15,-16 -26,-20 -12,-4 -31,-5 -59,-5l-78 0 0 117zm0 180l97 0c16,0 28,-1 35,-2 12,-2 22,-6 29,-10 8,-5 15,-13 20,-22 5,-10 8,-20 8,-33 0,-14 -4,-27 -11,-38 -8,-10 -18,-18 -31,-22 -13,-5 -32,-7 -57,-7l-90 0 0 134zm500 -45l50 6c-8,29 -23,52 -44,67 -21,16 -48,24 -81,24 -41,0 -74,-12 -98,-38 -24,-25 -36,-61 -36,-107 0,-47 12,-84 37,-110 24,-26 56,-40 95,-40 38,0 68,13 92,39 24,26 36,62 36,108 0,3 0,8 0,13l-210 0c1,31 10,55 26,71 16,17 35,25 59,25 17,0 32,-5 45,-14 12,-9 22,-24 29,-44zm-157 -77l158 0c-2,-24 -9,-42 -18,-54 -16,-18 -35,-27 -60,-27 -22,0 -40,7 -55,22 -15,15 -23,34 -25,59zm451 65l47 6c-5,32 -19,58 -40,76 -21,18 -47,27 -78,27 -38,0 -69,-12 -93,-37 -23,-26 -35,-62 -35,-109 0,-30 5,-57 15,-80 10,-23 26,-40 46,-51 21,-12 43,-18 68,-18 30,0 55,8 75,24 19,15 32,37 37,66l-46 7c-5,-19 -13,-33 -24,-43 -11,-9 -25,-14 -41,-14 -24,0 -43,8 -58,26 -15,17 -23,44 -23,82 0,38 7,65 22,82 14,17 33,26 57,26 19,0 34,-6 47,-17 12,-12 20,-29 24,-53zm87 -179l48 0 0 110 60 0c40,0 70,8 91,23 22,15 32,37 32,63 0,24 -9,44 -26,61 -18,17 -47,25 -86,25l-119 0 0 -282zm48 243l50 0c30,0 52,-4 65,-12 13,-7 19,-19 19,-34 0,-12 -5,-23 -14,-33 -10,-9 -31,-14 -64,-14l-56 0 0 93zm571 -64l47 6c-5,32 -18,58 -39,76 -21,18 -47,27 -78,27 -39,0 -70,-12 -93,-37 -24,-26 -35,-62 -35,-109 0,-30 5,-57 15,-80 10,-23 25,-40 46,-51 20,-12 43,-18 67,-18 31,0 56,8 75,24 20,15 32,37 38,66l-47 7c-4,-19 -12,-33 -23,-43 -11,-9 -25,-14 -41,-14 -24,0 -44,8 -59,26 -15,17 -22,44 -22,82 0,38 7,65 21,82 15,17 34,26 57,26 19,0 35,-6 47,-17 13,-12 21,-29 24,-53zm88 -179l223 0 0 282 -48 0 0 -243 -127 0 0 243 -48 0 0 -282zm488 191l49 6c-8,29 -22,52 -43,67 -21,16 -48,24 -81,24 -41,0 -74,-12 -98,-38 -24,-25 -36,-61 -36,-107 0,-47 12,-84 36,-110 25,-26 57,-40 96,-40 37,0 68,13 92,39 24,26 36,62 36,108 0,3 0,8 0,13l-211 0c2,31 11,55 27,71 15,17 35,25 58,25 18,0 33,-5 45,-14 13,-9 23,-24 30,-44zm-157 -77l157 0c-2,-24 -8,-42 -18,-54 -15,-18 -35,-27 -59,-27 -22,0 -40,7 -55,22 -15,15 -24,34 -25,59zm266 -114l48 0 0 122c15,0 26,-3 32,-9 6,-6 15,-23 27,-51 9,-22 17,-37 23,-44 5,-7 12,-12 20,-14 7,-3 20,-4 36,-4l10 0 0 39 -13 0c-13,0 -21,2 -24,6 -4,4 -10,15 -17,35 -8,18 -14,31 -20,38 -6,7 -16,13 -28,19 20,6 40,25 60,58l53 87 -53 0 -51 -87c-10,-18 -20,-30 -27,-35 -8,-6 -17,-8 -28,-8l0 130 -48 0 0 -282zm219 0l229 0 0 39 -91 0 0 243 -48 0 0 -243 -90 0 0 -39zm274 390l0 -390 44 0 0 37c10,-15 22,-26 35,-33 13,-7 28,-11 47,-11 24,0 45,7 64,19 18,12 32,30 41,53 10,22 14,47 14,74 0,29 -5,55 -15,78 -11,23 -26,41 -45,53 -20,12 -41,18 -63,18 -16,0 -30,-3 -43,-10 -12,-6 -23,-15 -31,-25l0 137 -48 0zm44 -247c0,36 7,63 22,80 14,17 32,26 53,26 21,0 40,-9 55,-27 15,-18 23,-46 23,-83 0,-36 -8,-63 -23,-81 -14,-18 -32,-27 -53,-27 -20,0 -38,9 -54,28 -15,20 -23,47 -23,84zm410 247l0 -390 44 0 0 37c10,-15 22,-26 35,-33 12,-7 28,-11 46,-11 25,0 46,7 64,19 19,12 33,30 42,53 9,22 14,47 14,74 0,29 -5,55 -16,78 -10,23 -25,41 -45,53 -19,12 -40,18 -62,18 -16,0 -30,-3 -43,-10 -13,-6 -23,-15 -31,-25l0 137 -48 0zm43 -247c0,36 8,63 22,80 15,17 33,26 54,26 21,0 39,-9 54,-27 16,-18 23,-46 23,-83 0,-36 -7,-63 -22,-81 -15,-18 -32,-27 -53,-27 -20,0 -38,9 -54,28 -16,20 -24,47 -24,84zm453 48l49 6c-8,29 -22,52 -43,67 -21,16 -48,24 -81,24 -41,0 -74,-12 -98,-38 -24,-25 -36,-61 -36,-107 0,-47 12,-84 36,-110 25,-26 57,-40 96,-40 37,0 68,13 92,39 24,26 36,62 36,108 0,3 0,8 0,13l-211 0c2,31 11,55 26,71 16,17 36,25 59,25 18,0 33,-5 45,-14 13,-9 23,-24 30,-44zm-157 -77l157 0c-2,-24 -8,-42 -18,-54 -15,-18 -35,-27 -59,-27 -22,0 -40,7 -55,22 -15,15 -24,34 -25,59zm266 -114l48 0 0 122c15,0 26,-3 32,-9 6,-6 15,-23 27,-51 9,-22 17,-37 23,-44 5,-7 12,-12 20,-14 7,-3 20,-4 36,-4l10 0 0 39 -13 0c-13,0 -21,2 -24,6 -4,4 -10,15 -17,35 -8,18 -14,31 -20,38 -6,7 -16,13 -28,19 20,6 40,25 60,58l53 87 -53 0 -51 -87c-10,-18 -20,-30 -27,-35 -8,-6 -17,-8 -28,-8l0 130 -48 0 0 -282zm268 0l222 0 0 282 -48 0 0 -243 -126 0 0 141c0,33 -2,54 -4,65 -2,10 -8,19 -17,27 -10,8 -24,12 -42,12 -11,0 -24,-1 -38,-2l0 -40 21 0c10,0 17,-1 21,-3 4,-2 7,-5 9,-10 1,-4 2,-19 2,-43l0 -186zm478 247c-18,15 -35,26 -51,32 -17,6 -34,9 -53,9 -31,0 -55,-7 -72,-22 -16,-15 -24,-35 -24,-58 0,-14 3,-27 9,-38 6,-12 14,-21 25,-28 10,-7 21,-12 34,-15 9,-3 24,-5 42,-8 39,-4 68,-10 86,-16 0,-7 0,-11 0,-12 0,-20 -4,-34 -14,-42 -12,-11 -30,-16 -54,-16 -22,0 -39,4 -50,12 -10,8 -18,22 -24,42l-46 -7c4,-20 11,-36 21,-48 9,-12 24,-22 42,-29 18,-6 40,-10 64,-10 24,0 44,3 59,9 15,6 26,13 33,21 7,9 12,20 15,33 1,8 2,23 2,44l0 64c0,44 1,72 3,84 2,12 6,23 12,34l-50 0c-5,-10 -8,-22 -9,-35zm-4 -107c-18,8 -44,14 -78,18 -20,3 -34,6 -42,10 -8,4 -14,9 -19,16 -4,6 -7,14 -7,22 0,13 5,24 15,32 10,9 24,13 42,13 19,0 35,-4 49,-12 15,-8 25,-19 32,-33 5,-11 8,-27 8,-48l0 -18zm124 -140l74 0 74 226 82 -226 69 0 0 282 -48 0 0 -227 -83 227 -43 0 -79 -238 0 238 -46 0 0 -282zm372 0l48 0 0 117 133 0 0 -117 48 0 0 282 -48 0 0 -125 -133 0 0 125 -48 0 0 -282zm301 0l47 0 0 215 133 -215 51 0 0 282 -47 0 0 -214 -133 214 -51 0 0 -282zm272 282l103 -147 -96 -135 60 0 43 66c9,13 15,23 20,32 8,-12 15,-22 22,-31l47 -67 57 0 -97 133 105 149 -59 0 -58 -88 -15 -23 -74 111 -58 0zm455 -282l223 0 0 282 -48 0 0 -243 -127 0 0 243 -48 0 0 -282zm276 141c0,-52 15,-91 44,-116 24,-21 54,-32 89,-32 39,0 70,13 95,39 24,25 37,60 37,105 0,36 -6,65 -17,86 -10,20 -26,37 -47,48 -21,12 -44,17 -68,17 -40,0 -72,-12 -96,-38 -24,-25 -37,-61 -37,-109zm50 0c0,36 7,63 23,81 16,18 36,27 60,27 23,0 43,-9 59,-27 16,-18 24,-46 24,-83 0,-35 -8,-61 -24,-79 -16,-18 -36,-27 -59,-27 -24,0 -44,9 -60,27 -16,18 -23,45 -23,81zm455 38l47 6c-5,32 -18,58 -40,76 -21,18 -47,27 -78,27 -38,0 -69,-12 -93,-37 -23,-26 -35,-62 -35,-109 0,-30 5,-57 15,-80 10,-23 26,-40 46,-51 21,-12 44,-18 68,-18 30,0 55,8 75,24 19,15 32,37 37,66l-46 7c-5,-19 -12,-33 -24,-43 -11,-9 -24,-14 -40,-14 -25,0 -44,8 -59,26 -15,17 -23,44 -23,82 0,38 8,65 22,82 15,17 34,26 57,26 19,0 34,-6 47,-17 13,-12 21,-29 24,-53zm111 -179l222 0 0 282 -47 0 0 -243 -127 0 0 141c0,33 -1,54 -3,65 -2,10 -8,19 -18,27 -9,8 -23,12 -41,12 -11,0 -24,-1 -39,-2l0 -40 21 0c10,0 17,-1 22,-3 4,-2 7,-5 8,-10 1,-4 2,-19 2,-43l0 -186zm292 391l-5 -45c10,3 19,4 27,4 11,0 19,-2 26,-5 6,-4 11,-9 15,-15 3,-5 8,-17 15,-36 1,-3 2,-6 4,-11l-107 -283 52 0 58 163c8,21 15,43 21,66 5,-22 12,-44 19,-65l61 -164 48 0 -108 287c-11,31 -20,52 -27,64 -8,16 -18,27 -29,34 -11,8 -24,11 -39,11 -9,0 -20,-2 -31,-5zm274 -391l163 0 0 39 -115 0 0 243 -48 0 0 -282z"/>
   <rect class="fil9" width="13477" height="5432"/>
  </g>
 </g>
</svg>
