<?xml version="1.0" encoding="UTF-8"?>
<!DOCTYPE svg PUBLIC "-//W3C//DTD SVG 1.1//EN" "http://www.w3.org/Graphics/SVG/1.1/DTD/svg11.dtd">
<!-- Creator: CorelDRAW X7 -->
<svg xmlns="http://www.w3.org/2000/svg" xml:space="preserve" width="172.111mm" height="31.1856mm" version="1.1" style="shape-rendering:geometricPrecision; text-rendering:geometricPrecision; image-rendering:optimizeQuality; fill-rule:evenodd; clip-rule:evenodd"
viewBox="0 0 10453 1894"
 xmlns:xlink="http://www.w3.org/1999/xlink">
 <defs>
  <style type="text/css">
   <![CDATA[
    .str0 {stroke:#FEFEFE;stroke-width:15.1838;stroke-linecap:round;stroke-linejoin:round}
    .fil8 {fill:#FEFEFE}
    .fil3 {fill:#FFED00}
    .fil4 {fill:#F08219}
    .fil6 {fill:#E31E24}
    .fil1 {fill:#48C0EA}
    .fil5 {fill:#5D3085}
    .fil7 {fill:#4556A0}
    .fil2 {fill:#009846}
    .fil0 {fill:#393185;fill-rule:nonzero}
   ]]>
  </style>
 </defs>
 <g id="Слой_x0020_1">
  <metadata id="CorelCorpID_0Corel-Layer"/>
  <path class="fil0" d="M3055 1789l-1254 0 161 -120 0 -556c-99,0 -180,25 -241,75 31,-108 111,-162 241,-162l0 -457 -161 -120 1205 0c-90,98 -160,204 -208,319 -36,-95 -87,-160 -153,-193 -53,-27 -136,-40 -248,-40 -56,0 -123,3 -202,8l0 483 297 0 147 -163 0 411 -147 -161 -297 0 0 583c71,5 122,7 152,7 143,0 240,-13 292,-40 58,-29 122,-102 193,-217 21,78 47,143 80,192 27,41 75,91 143,151zm1145 0c-54,0 -118,10 -191,31 -76,20 -134,45 -175,74 0,-136 -22,-256 -65,-361 -22,-53 -80,-160 -176,-320l-183 170 0 309 132 97 -441 0 128 -97 0 -867 -128 -95 441 0 -132 95 0 447 357 -327c42,-38 63,-74 63,-108 0,-45 -39,-79 -118,-103l0 -4 475 0 0 4c-81,29 -199,114 -353,256l-143 131c113,200 185,322 215,367 87,123 185,223 294,301zm930 -187c-68,75 -132,129 -195,162 -70,36 -152,54 -246,54 -181,0 -317,-51 -409,-153 -93,-102 -139,-244 -139,-426 0,-162 46,-293 137,-391 91,-98 216,-147 377,-147 48,0 107,12 175,36 69,25 115,37 140,37 44,0 87,-15 129,-44 -62,108 -103,215 -124,322 -42,-185 -153,-278 -334,-278 -201,0 -301,155 -301,465 0,140 23,254 70,342 60,111 154,166 283,166 99,0 170,-29 212,-86 33,-46 52,-121 59,-227 25,32 51,63 76,94 32,38 62,63 90,74zm1046 187l-990 0 127 -95 0 -439c-78,0 -142,19 -190,59 24,-85 87,-128 190,-128l0 -361 -127 -95 952 0c-73,81 -127,165 -164,252 -29,-77 -70,-128 -122,-153 -41,-20 -106,-31 -195,-31 -61,0 -115,2 -160,6l0 382 234 0 117 -128 0 325 -117 -128 -234 0 0 460c42,3 82,5 120,5 79,0 135,-3 170,-11 60,-13 107,-41 141,-86 19,-24 43,-59 73,-105 15,61 36,112 63,153 22,34 60,74 112,118zm1010 0l-441 0 130 -97 0 -876c-56,-11 -101,-16 -136,-16 -77,0 -139,9 -185,25l0 716c0,84 -8,144 -25,181 -25,55 -74,82 -147,82 -128,0 -202,-58 -221,-173 48,-14 102,-40 162,-79 -13,35 -19,61 -19,79 0,75 26,112 78,112 66,0 100,-71 100,-213l0 -686 -163 -114 867 0 -130 95 0 867 130 97zm1095 0l-990 0 128 -95 0 -439c-79,0 -143,19 -191,59 24,-85 88,-128 191,-128l0 -361 -128 -95 952 0c-72,81 -127,165 -164,252 -29,-77 -70,-128 -122,-153 -41,-20 -106,-31 -195,-31 -61,0 -114,2 -160,6l0 382 235 0 116 -128 0 325 -116 -128 -235 0 0 460c42,3 82,5 120,5 79,0 136,-3 170,-11 60,-13 107,-41 141,-86 19,-24 44,-59 73,-105 15,61 36,112 63,153 23,34 60,74 112,118zm1075 0l-441 0 130 -97 0 -413c-68,16 -126,23 -176,23 -82,0 -159,-10 -229,-30l0 420 128 97 -441 0 130 -97 0 -426c-71,0 -128,24 -170,71 10,-40 31,-75 63,-105 34,-36 70,-54 107,-54l0 -353 -130 -95 441 0 -128 95 0 365c103,30 187,46 252,46 37,0 88,-8 153,-23l0 -388 -130 -95 441 0 -130 95 0 867 130 97zm1097 -187c-67,75 -132,129 -195,162 -70,36 -152,54 -246,54 -180,0 -317,-51 -409,-153 -92,-102 -139,-244 -139,-426 0,-162 46,-293 137,-391 91,-98 217,-147 377,-147 48,0 107,12 176,36 68,25 115,37 139,37 44,0 88,-15 130,-44 -63,108 -104,215 -124,322 -42,-185 -154,-278 -334,-278 -201,0 -302,155 -302,465 0,140 24,254 71,342 59,111 154,166 282,166 99,0 170,-29 212,-86 33,-46 53,-121 59,-227 26,32 51,63 76,94 32,38 62,63 90,74z"/>
  <polygon class="fil1 str0" points="8,1206 295,548 855,949 "/>
  <polygon class="fil2 str0" points="855,949 299,547 1102,304 "/>
  <polygon class="fil3 str0" points="1701,693 1096,304 855,949 "/>
  <polygon class="fil4 str0" points="1408,1237 1701,693 855,949 "/>
  <polygon class="fil5 str0" points="1113,1798 530,1484 855,949 "/>
  <polygon class="fil6 str0" points="1416,1224 1113,1798 855,949 "/>
  <polygon class="fil7 str0" points="534,1486 8,1206 855,949 "/>
  <polygon class="fil8 str0" points="31,1219 8,1207 17,1184 1680,679 1701,693 1689,716 "/>
  <polygon class="fil8 str0" points="287,566 295,548 321,541 846,920 864,979 "/>
  <polygon class="fil8 str0" points="1701,693 1690,709 1664,718 1101,348 1103,303 "/>
  <polygon class="fil8 str0" points="1116,1753 1105,1770 1093,1788 31,1219 30,1174 "/>
  <polygon class="fil8 str0" points="1077,1777 1095,1785 1115,1793 1694,707 1658,693 "/>
  <polygon class="fil8 str0" points="8,1206 26,1212 53,1205 317,586 295,548 "/>
  <polygon class="fil8 str0" points="1125,1775 1113,1798 1089,1785 838,960 875,950 "/>
  <polygon class="fil8 str0" points="1115,316 1100,304 1073,313 846,920 864,979 "/>
  <polygon class="fil8 str0" points="517,1477 550,1495 863,974 848,925 "/>
  <polygon class="fil8 str0" points="1425,1206 1407,1240 863,974 847,923 "/>
  <polygon class="fil8 str0" points="305,585 295,549 1103,303 1116,319 1112,340 "/>
  <path class="fil0" d="M3229 364l0 -364 137 0c27,0 50,4 67,11 16,7 30,19 39,34 10,15 14,31 14,48 0,16 -4,30 -12,44 -9,14 -22,25 -39,33 22,7 39,18 51,33 12,16 18,34 18,56 0,17 -4,32 -11,47 -7,15 -16,26 -27,34 -10,8 -23,14 -39,18 -16,4 -36,6 -59,6l-139 0zm48 -211l79 0c21,0 37,-1 46,-4 12,-4 21,-10 28,-18 6,-9 9,-19 9,-32 0,-12 -3,-23 -9,-32 -6,-9 -14,-16 -25,-19 -10,-3 -29,-5 -55,-5l-73 0 0 110zm0 168l91 0c15,0 26,-1 33,-2 11,-2 20,-5 27,-10 8,-4 14,-11 19,-20 5,-9 7,-19 7,-30 0,-14 -3,-26 -10,-36 -7,-10 -17,-17 -29,-21 -13,-4 -30,-6 -54,-6l-84 0 0 125zm468 -42l46 6c-7,27 -21,48 -40,63 -20,14 -45,22 -76,22 -38,0 -69,-12 -91,-36 -23,-23 -34,-57 -34,-100 0,-44 11,-78 34,-103 23,-24 52,-37 89,-37 35,0 64,12 86,36 23,24 34,58 34,102 0,2 0,6 -1,12l-196 0c1,29 10,51 24,66 15,16 33,23 55,23 17,0 31,-4 42,-13 12,-8 21,-22 28,-41zm-147 -72l148 0c-2,-22 -8,-39 -17,-50 -15,-17 -33,-26 -56,-26 -20,0 -38,7 -51,21 -14,13 -22,32 -24,55zm421 60l44 6c-4,30 -17,54 -37,71 -19,17 -44,26 -72,26 -36,0 -66,-12 -87,-35 -22,-24 -33,-58 -33,-102 0,-28 4,-53 14,-75 9,-21 24,-37 43,-48 19,-10 40,-16 63,-16 28,0 52,8 70,22 18,15 30,35 35,62l-43 7c-4,-18 -12,-31 -22,-40 -11,-9 -23,-14 -38,-14 -23,0 -41,8 -55,24 -14,16 -21,42 -21,77 0,35 6,61 20,77 14,16 31,24 53,24 18,0 32,-5 44,-16 12,-11 19,-27 22,-50zm82 -167l45 0 0 103 56 0c37,0 66,8 85,22 20,14 30,34 30,59 0,22 -8,41 -25,57 -16,15 -43,23 -79,23l-112 0 0 -264zm45 227l46 0c29,0 49,-3 61,-10 12,-7 18,-18 18,-33 0,-11 -4,-21 -13,-30 -9,-9 -29,-14 -60,-14l-52 0 0 87zm534 -60l44 6c-5,30 -17,54 -37,71 -20,17 -44,26 -73,26 -36,0 -65,-12 -87,-35 -22,-24 -33,-58 -33,-102 0,-28 5,-53 14,-75 10,-21 24,-37 43,-48 20,-10 41,-16 63,-16 29,0 52,8 71,22 18,15 29,35 35,62l-44 7c-4,-18 -11,-31 -22,-40 -10,-9 -23,-14 -38,-14 -22,0 -41,8 -55,24 -14,16 -21,42 -21,77 0,35 7,61 20,77 14,16 32,24 54,24 17,0 32,-5 44,-16 11,-11 19,-27 22,-50zm82 -167l208 0 0 264 -44 0 0 -227 -119 0 0 227 -45 0 0 -264zm456 179l46 6c-7,27 -21,48 -40,63 -20,14 -45,22 -76,22 -38,0 -69,-12 -92,-36 -22,-23 -33,-57 -33,-100 0,-44 11,-78 34,-103 23,-24 52,-37 89,-37 35,0 64,12 86,36 22,24 34,58 34,102 0,2 0,6 -1,12l-196 0c1,29 10,51 24,66 15,16 33,23 55,23 17,0 31,-4 42,-13 12,-8 21,-22 28,-41zm-147 -72l147 0c-2,-22 -7,-39 -16,-50 -15,-17 -33,-26 -56,-26 -20,0 -38,7 -52,21 -14,13 -21,32 -23,55zm249 -107l45 0 0 114c14,0 24,-2 30,-8 5,-5 14,-21 25,-48 9,-20 16,-34 21,-41 6,-6 12,-11 19,-13 7,-3 19,-4 34,-4l9 0 0 37 -12 0c-12,0 -19,2 -23,5 -3,4 -9,15 -16,33 -6,17 -13,29 -18,36 -6,6 -15,12 -26,18 19,5 38,23 56,53l49 82 -49 0 -48 -82c-9,-16 -18,-27 -25,-32 -7,-5 -16,-8 -26,-8l0 122 -45 0 0 -264zm204 0l215 0 0 37 -85 0 0 227 -45 0 0 -227 -85 0 0 -37zm257 365l0 -365 41 0 0 35c10,-14 20,-24 33,-31 12,-6 26,-10 43,-10 23,0 43,6 60,18 17,11 30,28 39,49 9,21 13,44 13,69 0,27 -5,51 -14,73 -10,22 -24,38 -43,50 -18,11 -37,17 -58,17 -15,0 -28,-3 -40,-9 -12,-7 -21,-15 -29,-24l0 128 -45 0zm41 -231c0,34 7,59 20,75 14,16 31,24 50,24 20,0 37,-8 51,-25 14,-17 22,-43 22,-78 0,-34 -7,-59 -21,-76 -14,-16 -31,-25 -50,-25 -19,0 -36,9 -50,27 -15,18 -22,44 -22,78zm383 231l0 -365 41 0 0 35c10,-14 21,-24 33,-31 12,-6 26,-10 44,-10 22,0 42,6 59,18 17,11 30,28 39,49 9,21 13,44 13,69 0,27 -4,51 -14,73 -10,22 -24,38 -42,50 -19,11 -38,17 -59,17 -15,0 -28,-3 -40,-9 -12,-7 -21,-15 -29,-24l0 128 -45 0zm41 -231c0,34 7,59 20,75 14,16 31,24 50,24 20,0 37,-8 51,-25 15,-17 22,-43 22,-78 0,-34 -7,-59 -21,-76 -14,-16 -30,-25 -50,-25 -19,0 -35,9 -50,27 -15,18 -22,44 -22,78zm423 45l46 6c-7,27 -21,48 -41,63 -19,14 -44,22 -75,22 -39,0 -69,-12 -92,-36 -22,-23 -34,-57 -34,-100 0,-44 12,-78 35,-103 22,-24 52,-37 89,-37 35,0 64,12 86,36 22,24 33,58 33,102 0,2 0,6 0,12l-196 0c1,29 9,51 24,66 15,16 33,23 55,23 17,0 31,-4 42,-13 12,-8 21,-22 28,-41zm-147 -72l147 0c-2,-22 -7,-39 -17,-50 -14,-17 -32,-26 -55,-26 -20,0 -38,7 -52,21 -14,13 -21,32 -23,55zm249 -107l45 0 0 114c14,0 24,-2 29,-8 6,-5 14,-21 26,-48 8,-20 16,-34 21,-41 5,-6 12,-11 19,-13 7,-3 18,-4 34,-4l9 0 0 37 -12 0c-12,0 -20,2 -23,5 -3,4 -9,15 -16,33 -7,17 -13,29 -18,36 -6,6 -15,12 -27,18 20,5 39,23 57,53l49 82 -49 0 -48 -82c-10,-16 -18,-27 -25,-32 -8,-5 -16,-8 -26,-8l0 122 -45 0 0 -264zm250 0l208 0 0 264 -45 0 0 -227 -118 0 0 132c0,30 -1,51 -3,60 -2,10 -8,19 -17,26 -9,7 -21,11 -38,11 -11,0 -23,-1 -36,-2l0 -37 19 0c9,0 16,-1 20,-3 4,-2 7,-5 8,-9 1,-5 2,-18 2,-41l0 -174zm447 231c-17,15 -33,24 -48,30 -15,6 -32,9 -49,9 -29,0 -51,-7 -67,-21 -15,-14 -23,-33 -23,-54 0,-13 3,-25 9,-36 5,-11 13,-19 23,-26 9,-6 20,-11 32,-14 9,-3 22,-5 40,-7 36,-4 62,-9 79,-15 0,-6 1,-10 1,-12 0,-18 -5,-31 -13,-38 -12,-11 -29,-16 -51,-16 -21,0 -37,4 -47,11 -10,8 -17,21 -22,40l-43 -6c4,-19 10,-34 19,-46 9,-11 22,-20 40,-26 17,-7 37,-10 59,-10 23,0 41,3 55,8 14,6 25,12 31,20 7,8 12,18 14,31 2,7 2,21 2,41l0 60c0,41 1,67 3,78 2,11 6,22 12,32l-47 0c-5,-9 -8,-20 -9,-33zm-4 -99c-16,6 -40,12 -73,17 -18,2 -31,5 -39,8 -7,4 -13,9 -17,15 -4,6 -7,13 -7,21 0,12 5,22 14,30 9,8 22,12 40,12 17,0 32,-4 46,-11 13,-8 23,-18 29,-31 5,-10 7,-25 7,-45l0 -16zm116 -132l69 0 70 211 77 -211 64 0 0 264 -45 0 0 -212 -78 212 -40 0 -73 -222 0 222 -44 0 0 -264zm349 0l44 0 0 110 124 0 0 -110 45 0 0 264 -45 0 0 -117 -124 0 0 117 -44 0 0 -264zm280 0l45 0 0 201 124 -201 48 0 0 264 -45 0 0 -200 -124 200 -48 0 0 -264zm254 264l97 -137 -89 -127 55 0 41 62c8,12 14,22 18,30 8,-11 14,-21 20,-29l45 -63 53 0 -91 125 98 139 -55 0 -54 -82 -14 -22 -69 104 -55 0zm426 -264l208 0 0 264 -45 0 0 -227 -118 0 0 227 -45 0 0 -264zm258 132c0,-49 14,-85 41,-108 23,-20 50,-30 83,-30 36,0 66,12 89,36 23,24 35,57 35,98 0,34 -6,61 -16,81 -10,19 -25,34 -44,45 -20,11 -41,16 -64,16 -37,0 -67,-12 -89,-36 -23,-23 -35,-57 -35,-102zm46 0c0,34 8,59 23,76 14,17 33,25 55,25 22,0 41,-8 56,-25 14,-17 22,-43 22,-77 0,-33 -8,-58 -23,-74 -14,-17 -33,-26 -55,-26 -22,0 -41,9 -55,25 -15,17 -23,42 -23,76zm426 35l44 6c-5,30 -17,54 -37,71 -20,17 -44,26 -73,26 -36,0 -65,-12 -87,-35 -22,-24 -33,-58 -33,-102 0,-28 5,-53 14,-75 10,-21 24,-37 44,-48 19,-10 40,-16 62,-16 29,0 53,8 71,22 18,15 30,35 35,62l-44 7c-4,-18 -11,-31 -22,-40 -10,-9 -23,-14 -38,-14 -22,0 -41,8 -55,24 -14,16 -21,42 -21,77 0,35 7,61 21,77 13,16 31,24 53,24 17,0 32,-5 44,-16 11,-11 19,-27 22,-50zm104 -167l208 0 0 264 -45 0 0 -227 -118 0 0 132c0,30 -1,51 -3,60 -2,10 -8,19 -17,26 -9,7 -21,11 -38,11 -11,0 -23,-1 -36,-2l0 -37 19 0c10,0 16,-1 20,-3 4,-2 7,-5 8,-9 1,-5 2,-18 2,-41l0 -174zm273 366l-5 -42c10,2 18,4 26,4 9,0 17,-2 23,-5 6,-4 11,-8 15,-14 3,-5 7,-16 14,-34 0,-2 2,-6 4,-10l-100 -265 48 0 55 153c7,19 13,40 19,61 5,-20 11,-40 18,-60l57 -154 44 0 -100 269c-11,29 -19,48 -25,59 -8,15 -17,26 -27,33 -11,7 -23,10 -37,10 -9,0 -18,-2 -29,-5zm256 -366l152 0 0 37 -107 0 0 227 -45 0 0 -264z"/>
 </g>
</svg>
