<?xml version="1.0" encoding="UTF-8"?>
<!DOCTYPE svg PUBLIC "-//W3C//DTD SVG 1.1//EN" "http://www.w3.org/Graphics/SVG/1.1/DTD/svg11.dtd">
<!-- Creator: CorelDRAW X7 -->
<svg xmlns="http://www.w3.org/2000/svg" xml:space="preserve" width="60px" height="54px" version="1.1" style="shape-rendering:geometricPrecision; text-rendering:geometricPrecision; image-rendering:optimizeQuality; fill-rule:evenodd; clip-rule:evenodd"
viewBox="0 0 60 54"
 xmlns:xlink="http://www.w3.org/1999/xlink">
 <defs>
  <style type="text/css">
   <![CDATA[
    .str0 {stroke:#394367;stroke-width:0.199846}
    .fil2 {fill:none}
    .fil0 {fill:#394367}
    .fil1 {fill:#FEFEFE}
   ]]>
  </style>
 </defs>
 <g id="Layer_x0020_1">
  <metadata id="CorelCorpID_0Corel-Layer"/>
  <g id="_1003409200">
   <polygon class="fil0" points="0,36 8,11 30,24 "/>
   <polygon class="fil0" points="30,24 8,11 37,0 "/>
   <polygon class="fil0" points="60,12 37,0 30,24 "/>
   <polygon class="fil0" points="51,33 60,12 30,24 "/>
   <polygon class="fil0" points="42,54 20,45 30,24 "/>
   <polygon class="fil0" points="51,33 42,54 30,24 "/>
   <polygon class="fil0" points="20,45 0,36 30,24 "/>
   <polygon class="fil1" points="1,37 0,36 0,36 59,12 60,12 59,13 "/>
   <polygon class="fil1" points="8,12 8,11 9,11 30,23 30,25 "/>
   <polygon class="fil1" points="60,12 59,13 58,13 38,2 38,0 "/>
   <polygon class="fil1" points="42,53 41,53 41,53 1,37 1,35 "/>
   <polygon class="fil1" points="40,53 41,53 42,54 60,13 58,12 "/>
   <polygon class="fil1" points="0,36 1,37 2,36 9,13 8,11 "/>
   <polygon class="fil1" points="42,53 42,54 41,53 29,24 31,24 "/>
   <polygon class="fil1" points="38,1 37,0 36,1 30,23 30,25 "/>
   <polygon class="fil1" points="20,44 21,45 30,25 30,23 "/>
   <polygon class="fil1" points="52,32 51,33 30,25 30,23 "/>
   <polygon class="fil1" points="9,13 8,11 38,0 38,1 38,2 "/>
   <polygon class="fil2 str0" points="0,36 8,11 38,0 60,12 42,54 "/>
  </g>
 </g>
</svg>
