<?xml version="1.0" encoding="UTF-8"?>
<!DOCTYPE svg PUBLIC "-//W3C//DTD SVG 1.1//EN" "http://www.w3.org/Graphics/SVG/1.1/DTD/svg11.dtd">
<!-- Creator: CorelDRAW X7 -->
<svg xmlns="http://www.w3.org/2000/svg" xml:space="preserve" width="1086px" height="264px" version="1.1" style="shape-rendering:geometricPrecision; text-rendering:geometricPrecision; image-rendering:optimizeQuality; fill-rule:evenodd; clip-rule:evenodd"
viewBox="0 0 1086 264"
 xmlns:xlink="http://www.w3.org/1999/xlink">
 <defs>
  <style type="text/css">
   <![CDATA[
    .fil0 {fill:#394367;fill-rule:nonzero}
   ]]>
  </style>
 </defs>
 <g id="Layer_x0020_1">
  <metadata id="CorelCorpID_0Corel-Layer"/>
  <path class="fil0" d="M24 58l0 -53 21 0c4,0 7,0 9,1 3,1 5,3 6,5 2,3 2,5 2,7 0,3 0,5 -2,7 -1,2 -3,4 -5,5 3,1 6,2 7,5 2,2 3,5 3,8 0,2 -1,5 -2,7 -1,2 -2,4 -4,5 -1,1 -3,2 -5,3 -3,0 -6,0 -9,0l-21 0zm7 -31l12 0c3,0 6,0 7,0 2,-1 3,-2 4,-3 1,-1 1,-3 1,-5 0,-1 0,-3 -1,-4 -1,-2 -2,-3 -4,-3 -1,-1 -4,-1 -8,-1l-11 0 0 16zm0 25l14 0c2,0 4,0 5,0 1,0 3,-1 4,-2 1,0 2,-1 3,-3 0,-1 1,-2 1,-4 0,-2 -1,-4 -2,-5 -1,-2 -2,-3 -4,-3 -2,-1 -5,-1 -8,-1l-13 0 0 18zm70 -6l6 1c-1,4 -3,7 -6,9 -3,2 -6,3 -11,3 -5,0 -10,-1 -13,-5 -4,-3 -5,-8 -5,-15 0,-6 1,-11 5,-15 3,-4 8,-5 13,-5 5,0 9,1 13,5 3,4 5,9 5,15 0,0 0,1 0,2l-29 0c0,4 1,7 3,10 2,2 5,3 8,3 3,0 5,-1 6,-2 2,-1 4,-3 5,-6zm-22 -11l22 0c-1,-3 -2,-5 -3,-7 -2,-3 -5,-4 -8,-4 -3,0 -6,1 -8,3 -2,2 -3,5 -3,8zm62 9l7 1c-1,5 -3,8 -6,11 -3,2 -6,3 -11,3 -5,0 -9,-1 -12,-5 -4,-3 -5,-8 -5,-15 0,-4 0,-8 2,-11 1,-3 3,-5 6,-7 3,-2 6,-2 9,-2 5,0 8,1 11,3 2,2 4,5 5,9l-6 1c-1,-3 -2,-5 -4,-6 -1,-1 -3,-2 -5,-2 -4,0 -6,1 -8,4 -3,2 -4,6 -4,11 0,5 1,9 3,11 2,3 5,4 8,4 3,0 5,-1 7,-2 2,-2 3,-4 3,-8zm12 -24l7 0 0 15 8 0c6,0 10,1 13,3 3,2 4,5 4,9 0,3 -1,6 -4,8 -2,2 -6,3 -11,3l-17 0 0 -38zm7 33l7 0c4,0 7,0 9,-1 1,-2 2,-3 2,-5 0,-2 0,-3 -2,-5 -1,-1 -4,-2 -8,-2l-8 0 0 13zm79 -9l6 1c-1,5 -2,8 -5,11 -3,2 -7,3 -11,3 -5,0 -10,-1 -13,-5 -3,-3 -5,-8 -5,-15 0,-4 1,-8 2,-11 2,-3 4,-5 7,-7 2,-2 6,-2 9,-2 4,0 8,1 10,3 3,2 5,5 5,9l-6 1c-1,-3 -2,-5 -3,-6 -2,-1 -4,-2 -6,-2 -3,0 -6,1 -8,4 -2,2 -3,6 -3,11 0,5 1,9 3,11 2,3 5,4 8,4 2,0 5,-1 6,-2 2,-2 3,-4 4,-8zm12 -24l31 0 0 38 -7 0 0 -33 -18 0 0 33 -6 0 0 -38zm67 26l7 1c-1,4 -3,7 -6,9 -3,2 -7,3 -11,3 -6,0 -10,-1 -14,-5 -3,-3 -5,-8 -5,-15 0,-6 2,-11 5,-15 4,-4 8,-5 13,-5 6,0 10,1 13,5 3,4 5,9 5,15 0,0 0,1 0,2l-29 0c0,4 1,7 4,10 2,2 5,3 8,3 2,0 4,-1 6,-2 2,-1 3,-3 4,-6zm-22 -11l22 0c0,-3 -1,-5 -2,-7 -2,-3 -5,-4 -9,-4 -3,0 -5,1 -7,3 -2,2 -3,5 -4,8zm37 -15l7 0 0 16c2,0 3,0 4,-1 1,-1 2,-3 4,-7 1,-3 2,-5 3,-6 1,-1 2,-2 3,-2 1,0 3,0 5,0l1 0 0 5 -2 0c-1,0 -2,0 -3,1 0,0 -1,2 -2,5 -1,2 -2,4 -3,5 -1,1 -2,2 -4,2 3,1 6,4 8,8l8 12 -8 0 -7 -12c-1,-2 -2,-4 -3,-4 -1,-1 -3,-2 -4,-2l0 18 -7 0 0 -38zm30 0l32 0 0 5 -13 0 0 33 -6 0 0 -33 -13 0 0 -5zm38 53l0 -53 6 0 0 5c2,-2 3,-4 5,-5 2,-1 4,-1 7,-1 3,0 6,1 8,2 3,2 5,4 6,7 1,4 2,7 2,11 0,4 -1,7 -2,10 -1,4 -4,6 -6,8 -3,2 -6,2 -9,2 -2,0 -4,0 -6,-1 -2,-1 -3,-2 -4,-4l0 19 -7 0zm6 -34c0,5 1,9 3,11 2,3 5,4 8,4 3,0 5,-1 7,-4 2,-2 3,-6 3,-11 0,-5 -1,-9 -3,-11 -2,-3 -4,-4 -7,-4 -3,0 -5,1 -8,4 -2,2 -3,6 -3,11zm57 34l0 -53 6 0 0 5c1,-2 3,-4 5,-5 2,-1 4,-1 6,-1 4,0 6,1 9,2 3,2 4,4 6,7 1,4 2,7 2,11 0,4 -1,7 -2,10 -2,4 -4,6 -7,8 -2,2 -5,2 -8,2 -2,0 -4,0 -6,-1 -2,-1 -3,-2 -4,-4l0 19 -7 0zm6 -34c0,5 1,9 3,11 2,3 4,4 7,4 3,0 6,-1 8,-4 2,-2 3,-6 3,-11 0,-5 -1,-9 -3,-11 -2,-3 -5,-4 -7,-4 -3,0 -6,1 -8,4 -2,2 -3,6 -3,11zm62 7l7 1c-1,4 -3,7 -6,9 -3,2 -6,3 -11,3 -6,0 -10,-1 -14,-5 -3,-3 -5,-8 -5,-15 0,-6 2,-11 6,-15 3,-4 7,-5 13,-5 5,0 9,1 12,5 4,4 5,9 5,15 0,0 0,1 0,2l-29 0c1,4 2,7 4,10 2,2 5,3 8,3 2,0 5,-1 6,-2 2,-1 3,-3 4,-6zm-21 -11l21 0c0,-3 -1,-5 -2,-7 -2,-3 -5,-4 -8,-4 -3,0 -6,1 -8,3 -2,2 -3,5 -3,8zm36 -15l7 0 0 16c2,0 4,0 4,-1 1,-1 3,-3 4,-7 1,-3 3,-5 3,-6 1,-1 2,-2 3,-2 1,0 3,0 5,0l1 0 0 5 -1 0c-2,0 -3,0 -4,1 0,0 -1,2 -2,5 -1,2 -2,4 -3,5 -1,1 -2,2 -4,2 3,1 6,4 9,8l7 12 -7 0 -7 -12c-2,-2 -3,-4 -4,-4 -1,-1 -2,-2 -4,-2l0 18 -7 0 0 -38zm37 0l31 0 0 38 -7 0 0 -33 -17 0 0 19c0,5 0,8 0,9 -1,2 -2,3 -3,4 -1,1 -3,2 -6,2 -1,0 -3,0 -5,-1l0 -5 3 0c1,0 2,0 3,0 0,-1 1,-1 1,-2 0,0 0,-2 0,-6l0 -25zm66 34c-2,2 -4,3 -7,4 -2,1 -4,1 -7,1 -4,0 -8,-1 -10,-3 -2,-2 -3,-5 -3,-8 0,-2 0,-3 1,-5 1,-2 2,-3 3,-4 2,-1 3,-1 5,-2 1,0 3,-1 6,-1 5,-1 9,-1 12,-2 0,-1 0,-2 0,-2 0,-3 -1,-5 -2,-6 -2,-1 -4,-2 -8,-2 -3,0 -5,1 -6,2 -2,1 -3,3 -4,6l-6 -1c0,-3 1,-5 3,-7 1,-2 3,-3 6,-4 2,-1 5,-1 8,-1 4,0 6,0 9,1 2,1 3,2 4,3 1,1 2,2 2,4 0,1 0,3 0,6l0 9c0,6 1,10 1,12 0,1 1,3 2,4l-7 0c-1,-1 -1,-2 -2,-4zm0 -15c-3,1 -6,2 -11,2 -3,1 -5,1 -6,2 -1,0 -2,1 -2,2 -1,1 -1,2 -1,3 0,2 0,3 2,4 1,2 3,2 6,2 2,0 4,0 6,-1 2,-2 4,-3 5,-5 0,-2 1,-4 1,-7l0 -2zm17 -19l10 0 10 31 12 -31 9 0 0 38 -6 0 0 -31 -12 31 -6 0 -11 -32 0 32 -6 0 0 -38zm51 0l7 0 0 16 18 0 0 -16 7 0 0 38 -7 0 0 -17 -18 0 0 17 -7 0 0 -38zm42 0l6 0 0 29 19 -29 7 0 0 38 -7 0 0 -29 -18 29 -7 0 0 -38zm37 38l15 -20 -14 -18 9 0 6 9c1,1 2,3 2,4 1,-2 2,-3 3,-4l7 -9 8 0 -14 18 15 20 -8 0 -8 -12 -2 -3 -11 15 -8 0zm63 -38l31 0 0 38 -7 0 0 -33 -17 0 0 33 -7 0 0 -38zm38 19c0,-7 2,-13 6,-16 4,-3 8,-4 13,-4 5,0 9,1 13,5 3,3 5,8 5,14 0,5 -1,9 -2,12 -2,3 -4,5 -7,7 -3,2 -6,2 -9,2 -6,0 -10,-1 -14,-5 -3,-3 -5,-8 -5,-15zm7 0c0,5 1,9 3,11 3,3 5,4 9,4 3,0 6,-1 8,-4 2,-2 3,-6 3,-11 0,-5 -1,-9 -3,-11 -2,-3 -5,-4 -8,-4 -4,0 -6,1 -9,4 -2,2 -3,6 -3,11zm63 5l7 1c-1,5 -3,8 -6,11 -3,2 -6,3 -11,3 -5,0 -9,-1 -13,-5 -3,-3 -4,-8 -4,-15 0,-4 0,-8 2,-11 1,-3 3,-5 6,-7 3,-2 6,-2 9,-2 5,0 8,1 11,3 2,2 4,5 5,9l-7 1c0,-3 -1,-5 -3,-6 -1,-1 -3,-2 -5,-2 -4,0 -6,1 -8,4 -3,2 -4,6 -4,11 0,5 1,9 3,11 2,3 5,4 8,4 3,0 5,-1 7,-2 1,-2 3,-4 3,-8zm15 -24l31 0 0 38 -6 0 0 -33 -18 0 0 19c0,5 0,8 0,9 -1,2 -2,3 -3,4 -1,1 -3,2 -6,2 -1,0 -3,0 -5,-1l0 -5 3 0c1,0 2,0 3,0 1,-1 1,-1 1,-2 0,0 0,-2 0,-6l0 -25zm41 53l-1 -6c1,1 3,1 4,1 1,0 2,0 3,-1 1,0 2,-1 2,-2 1,-1 2,-2 2,-5 1,0 1,-1 1,-1l-15 -39 7 0 8 22c2,3 2,6 3,9 1,-3 2,-6 3,-9l8 -22 7 0 -15 39c-1,4 -3,7 -4,9 -1,2 -2,4 -4,5 -1,1 -3,1 -5,1 -1,0 -3,0 -4,-1zm38 -53l22 0 0 5 -16 0 0 33 -6 0 0 -38z"/>
  <path class="fil0" d="M166 256l-156 0 20 -15 0 -69c-12,0 -22,3 -30,9 4,-14 14,-20 30,-20l0 -57 -20 -15 150 0c-11,12 -20,25 -26,40 -5,-12 -11,-20 -19,-24 -7,-4 -17,-5 -31,-5 -7,0 -15,0 -25,1l0 60 37 0 18 -21 0 51 -18 -19 -37 0 0 72c9,1 15,1 19,1 18,0 30,-2 36,-5 7,-4 15,-13 24,-27 3,10 6,18 10,24 3,5 9,11 18,19zm142 0c-6,0 -14,1 -23,3 -10,3 -17,6 -22,10 0,-17 -3,-32 -8,-45 -3,-7 -10,-20 -22,-40l-23 21 0 38 16 13 -54 0 15 -13 0 -107 -15 -12 54 0 -16 12 0 55 44 -40c6,-5 8,-10 8,-14 0,-5 -5,-10 -14,-13l0 0 59 0 0 0c-10,4 -25,15 -44,32l-18 16c14,25 23,41 27,46 11,15 23,28 36,38zm116 -24c-8,10 -17,16 -24,20 -9,5 -19,7 -31,7 -22,0 -39,-6 -51,-19 -11,-13 -17,-30 -17,-53 0,-20 6,-36 17,-48 11,-13 27,-19 47,-19 6,0 13,2 22,5 8,3 14,4 17,4 6,0 11,-2 16,-5 -8,13 -13,27 -15,40 -6,-23 -19,-35 -42,-35 -25,0 -37,20 -37,58 0,18 3,32 8,43 8,13 20,20 36,20 12,0 21,-3 26,-10 4,-6 6,-15 7,-29 3,4 7,8 10,12 4,5 7,8 11,9zm130 24l-123 0 16 -12 0 -55c-10,0 -18,3 -24,7 3,-10 11,-15 24,-15l0 -45 -16 -12 118 0c-9,10 -16,20 -20,31 -4,-9 -9,-16 -15,-19 -5,-2 -13,-4 -25,-4 -7,0 -14,1 -19,1l0 48 29 0 14 -16 0 40 -14 -16 -29 0 0 57c5,1 10,1 15,1 9,0 16,0 21,-1 7,-2 13,-6 17,-11 3,-3 6,-7 9,-13 2,7 5,14 8,19 3,4 8,9 14,15zm126 0l-55 0 16 -13 0 -109c-7,-1 -13,-1 -17,-1 -10,0 -17,1 -23,3l0 89c0,10 -1,18 -3,22 -3,7 -9,10 -18,10 -16,0 -25,-7 -28,-21 6,-2 13,-5 20,-10 -1,4 -2,8 -2,10 0,9 3,14 10,14 8,0 12,-9 12,-27l0 -85 -20 -14 108 0 -17 12 0 107 17 13zm136 0l-123 0 16 -12 0 -55c-10,0 -18,3 -24,7 3,-10 11,-15 24,-15l0 -45 -16 -12 118 0c-9,10 -16,20 -20,31 -4,-9 -9,-16 -15,-19 -6,-2 -14,-4 -25,-4 -7,0 -14,1 -20,1l0 48 30 0 14 -16 0 40 -14 -16 -30 0 0 57c6,1 11,1 15,1 10,0 17,0 21,-1 8,-2 14,-6 18,-11 2,-3 5,-7 9,-13 2,7 5,14 8,19 3,4 7,9 14,15zm134 0l-55 0 16 -13 0 -51c-9,2 -16,3 -22,3 -10,0 -20,-1 -28,-4l0 52 15 13 -54 0 16 -13 0 -52c-9,0 -16,2 -21,8 1,-5 3,-9 7,-13 5,-4 9,-6 14,-6l0 -44 -16 -12 54 0 -15 12 0 45c12,4 23,6 31,6 4,0 11,-1 19,-3l0 -48 -16 -12 55 0 -17 12 0 107 17 13zm136 -24c-8,10 -16,16 -24,20 -9,5 -19,7 -31,7 -22,0 -39,-6 -51,-19 -11,-13 -17,-30 -17,-53 0,-20 6,-36 17,-48 11,-13 27,-19 47,-19 6,0 13,2 22,5 8,3 14,4 17,4 6,0 11,-2 16,-5 -8,13 -13,27 -15,40 -5,-23 -19,-35 -42,-35 -25,0 -37,20 -37,58 0,18 3,32 9,43 7,13 19,20 35,20 12,0 21,-3 26,-10 4,-6 7,-15 7,-29 4,4 7,8 10,12 4,5 8,8 11,9z"/>
 </g>
</svg>
